<svg width="458" height="78" fill="none" xmlns="http://www.w3.org/2000/svg"><path d="M112.304 67.448c-2.949 0-5.805-.448-8.568-1.344-2.725-.933-4.872-2.128-6.44-3.584l2.072-4.368c1.493 1.344 3.397 2.445 5.712 3.304a21.764 21.764 0 007.224 1.232c3.248 0 5.675-.541 7.28-1.624 1.605-1.12 2.408-2.595 2.408-4.424 0-1.344-.448-2.427-1.344-3.248-.859-.859-1.941-1.512-3.248-1.96-1.269-.448-3.08-.952-5.432-1.512-2.949-.71-5.339-1.419-7.168-2.128a12.21 12.21 0 01-4.648-3.248c-1.27-1.493-1.904-3.49-1.904-5.992 0-2.09.541-3.976 1.624-5.656 1.12-1.68 2.8-3.024 5.04-4.032s5.021-1.512 8.344-1.512c2.315 0 4.592.299 6.832.896s4.163 1.456 5.768 2.576l-1.848 4.48a19.597 19.597 0 00-5.264-2.352c-1.867-.56-3.696-.84-5.488-.84-3.173 0-5.563.579-7.168 1.736-1.568 1.157-2.352 2.65-2.352 4.48 0 1.344.448 2.445 1.344 3.304.896.821 1.997 1.475 3.304 1.96 1.344.448 3.155.933 5.432 1.456 2.949.71 5.32 1.419 7.112 2.128a11.738 11.738 0 014.592 3.248c1.307 1.456 1.96 3.416 1.96 5.88 0 2.053-.56 3.939-1.68 5.656-1.12 1.68-2.819 3.024-5.096 4.032-2.277.97-5.077 1.456-8.4 1.456zm19.773-30.128h5.376V67h-5.376V37.32zm2.688-5.712c-1.045 0-1.922-.336-2.632-1.008-.672-.672-1.008-1.493-1.008-2.464 0-.97.336-1.792 1.008-2.464.71-.71 1.587-1.064 2.632-1.064 1.046 0 1.904.336 2.576 1.008.71.635 1.064 1.437 1.064 2.408 0 1.008-.354 1.867-1.064 2.576-.672.672-1.53 1.008-2.576 1.008zm47.281 5.432c3.733 0 6.683 1.083 8.848 3.248 2.203 2.165 3.304 5.376 3.304 9.632V67h-5.376V50.536c0-2.875-.672-5.04-2.016-6.496-1.307-1.456-3.192-2.184-5.656-2.184-2.725 0-4.891.859-6.496 2.576-1.605 1.68-2.408 4.107-2.408 7.28V67h-5.376V50.536c0-2.875-.672-5.04-2.016-6.496-1.307-1.456-3.192-2.184-5.656-2.184-2.725 0-4.891.859-6.496 2.576-1.605 1.68-2.408 4.107-2.408 7.28V67h-5.376V37.32h5.152v4.424c1.083-1.53 2.501-2.688 4.256-3.472 1.755-.821 3.752-1.232 5.992-1.232 2.315 0 4.368.467 6.16 1.4 1.792.933 3.173 2.296 4.144 4.088 1.12-1.717 2.669-3.061 4.648-4.032 2.016-.97 4.275-1.456 6.776-1.456zm34.98 0c2.874 0 5.45.635 7.728 1.904a13.51 13.51 0 015.32 5.32c1.306 2.277 1.96 4.91 1.96 7.896 0 2.987-.654 5.637-1.96 7.952a13.51 13.51 0 01-5.32 5.32c-2.278 1.27-4.854 1.904-7.728 1.904-2.128 0-4.088-.41-5.88-1.232-1.755-.821-3.248-2.016-4.48-3.584v15.344h-5.376V37.32h5.152v4.704a11.183 11.183 0 014.536-3.696c1.829-.859 3.845-1.288 6.048-1.288zm-.448 25.592c1.904 0 3.602-.43 5.096-1.288a9.483 9.483 0 003.584-3.696c.896-1.605 1.344-3.435 1.344-5.488 0-2.053-.448-3.864-1.344-5.432-.859-1.605-2.054-2.837-3.584-3.696-1.494-.859-3.192-1.288-5.096-1.288-1.867 0-3.566.448-5.096 1.344-1.494.859-2.688 2.072-3.584 3.64-.859 1.568-1.288 3.379-1.288 5.432 0 2.053.429 3.883 1.288 5.488a9.47 9.47 0 003.584 3.696c1.53.859 3.229 1.288 5.096 1.288zm20.084-37.184h5.376V67h-5.376V25.448zm39.664 26.88c0 .41-.037.952-.112 1.624h-24.08c.336 2.613 1.475 4.723 3.416 6.328 1.979 1.568 4.424 2.352 7.336 2.352 3.547 0 6.403-1.195 8.568-3.584l2.968 3.472c-1.344 1.568-3.024 2.763-5.04 3.584-1.978.821-4.2 1.232-6.664 1.232-3.136 0-5.917-.635-8.344-1.904-2.426-1.307-4.312-3.117-5.656-5.432-1.306-2.315-1.96-4.928-1.96-7.84 0-2.875.635-5.47 1.904-7.784 1.307-2.315 3.08-4.107 5.32-5.376 2.278-1.307 4.835-1.96 7.672-1.96 2.838 0 5.358.653 7.56 1.96 2.24 1.27 3.976 3.061 5.208 5.376 1.27 2.315 1.904 4.965 1.904 7.952zm-14.672-10.752c-2.576 0-4.741.784-6.496 2.352-1.717 1.568-2.725 3.621-3.024 6.16h19.04c-.298-2.501-1.325-4.536-3.08-6.104-1.717-1.605-3.864-2.408-6.44-2.408zm58.736 5.096c2.278.635 4.07 1.792 5.376 3.472 1.307 1.643 1.96 3.733 1.96 6.272 0 3.397-1.288 6.01-3.864 7.84-2.538 1.83-6.253 2.744-11.144 2.744h-18.704V27.8h17.584c4.48 0 7.934.896 10.36 2.688 2.464 1.792 3.696 4.275 3.696 7.448 0 2.053-.485 3.827-1.456 5.32a9.108 9.108 0 01-3.808 3.416zm-20.776-14.336V44.88h11.48c2.875 0 5.078-.523 6.608-1.568 1.568-1.083 2.352-2.65 2.352-4.704 0-2.053-.784-3.603-2.352-4.648-1.53-1.083-3.733-1.624-6.608-1.624h-11.48zm12.88 30.128c3.174 0 5.563-.523 7.168-1.568 1.606-1.045 2.408-2.688 2.408-4.928 0-4.368-3.192-6.552-9.576-6.552h-12.88v13.048h12.88zm33.031 4.872c-2.949 0-5.6-.653-7.952-1.96-2.352-1.307-4.2-3.099-5.544-5.376-1.306-2.315-1.96-4.928-1.96-7.84s.654-5.507 1.96-7.784A13.961 13.961 0 01337.573 39c2.352-1.307 5.003-1.96 7.952-1.96 2.95 0 5.582.653 7.896 1.96 2.352 1.27 4.182 3.061 5.488 5.376 1.344 2.277 2.016 4.872 2.016 7.784s-.672 5.525-2.016 7.84c-1.306 2.277-3.136 4.07-5.488 5.376-2.314 1.307-4.946 1.96-7.896 1.96zm0-4.704c1.904 0 3.603-.43 5.096-1.288a9.47 9.47 0 003.584-3.696c.859-1.605 1.288-3.435 1.288-5.488 0-2.053-.429-3.864-1.288-5.432-.858-1.605-2.053-2.837-3.584-3.696-1.493-.859-3.192-1.288-5.096-1.288s-3.621.43-5.152 1.288c-1.493.859-2.688 2.09-3.584 3.696-.858 1.568-1.288 3.379-1.288 5.432 0 2.053.43 3.883 1.288 5.488.896 1.568 2.091 2.8 3.584 3.696 1.531.859 3.248 1.288 5.152 1.288zm35.883-25.592c3.771 0 6.757 1.101 8.96 3.304 2.24 2.165 3.36 5.357 3.36 9.576V67h-5.376V50.536c0-2.875-.691-5.04-2.072-6.496-1.381-1.456-3.36-2.184-5.936-2.184-2.912 0-5.208.859-6.888 2.576-1.68 1.68-2.52 4.107-2.52 7.28V67h-5.376V37.32h5.152v4.48c1.083-1.53 2.539-2.707 4.368-3.528 1.867-.821 3.976-1.232 6.328-1.232zm47.633-11.592V67h-5.152v-4.704a11.632 11.632 0 01-4.536 3.752c-1.829.859-3.845 1.288-6.048 1.288-2.874 0-5.45-.635-7.728-1.904-2.277-1.27-4.069-3.043-5.376-5.32-1.269-2.315-1.904-4.965-1.904-7.952s.635-5.619 1.904-7.896c1.307-2.277 3.099-4.05 5.376-5.32 2.278-1.27 4.854-1.904 7.728-1.904 2.128 0 4.088.41 5.88 1.232a11.179 11.179 0 014.48 3.528V25.448h5.376zm-15.288 37.184c1.867 0 3.566-.43 5.096-1.288a9.47 9.47 0 003.584-3.696c.859-1.605 1.288-3.435 1.288-5.488 0-2.053-.429-3.864-1.288-5.432-.858-1.605-2.053-2.837-3.584-3.696-1.53-.859-3.229-1.288-5.096-1.288-1.904 0-3.621.43-5.152 1.288-1.493.859-2.688 2.09-3.584 3.696-.858 1.568-1.288 3.379-1.288 5.432 0 2.053.43 3.883 1.288 5.488.896 1.568 2.091 2.8 3.584 3.696 1.531.859 3.248 1.288 5.152 1.288zm31.172 4.704c-2.426 0-4.76-.317-7-.952-2.24-.672-3.994-1.512-5.264-2.52l2.24-4.256c1.307.933 2.894 1.68 4.76 2.24 1.867.56 3.752.84 5.656.84 4.704 0 7.056-1.344 7.056-4.032 0-.896-.317-1.605-.952-2.128-.634-.523-1.437-.896-2.408-1.12-.933-.261-2.277-.541-4.032-.84-2.389-.373-4.349-.803-5.88-1.288a9.042 9.042 0 01-3.864-2.464c-1.082-1.157-1.624-2.781-1.624-4.872 0-2.688 1.12-4.835 3.36-6.44 2.24-1.643 5.246-2.464 9.016-2.464 1.979 0 3.958.243 5.936.728 1.979.485 3.603 1.139 4.872 1.96l-2.296 4.256c-2.426-1.568-5.282-2.352-8.568-2.352-2.277 0-4.013.373-5.208 1.12-1.194.747-1.792 1.736-1.792 2.968 0 .97.336 1.736 1.008 2.296.672.56 1.494.97 2.464 1.232 1.008.261 2.408.56 4.2.896 2.39.41 4.312.859 5.768 1.344a8.419 8.419 0 013.808 2.352c1.046 1.12 1.568 2.688 1.568 4.704 0 2.688-1.157 4.835-3.472 6.44-2.277 1.568-5.394 2.352-9.352 2.352zM68.294 27.305H57.95c-1.192 0-2.249 1-2.249 2.193v35.548c0 1.19 1.06 2.124 2.25 2.124h10.34a2.125 2.125 0 002.155-2.124V29.498a2.186 2.186 0 00-2.153-2.193zm-24.07 8.191h-10.34c-1.192 0-2.21.937-2.21 2.116v27.455c0 1.179 1.018 2.103 2.21 2.103h10.34c1.195 0 2.194-.921 2.194-2.103V37.612c0-1.179-1-2.116-2.194-2.116zm-24.071 7.1H9.813a2.196 2.196 0 00-2.168 2.185V65.05a2.13 2.13 0 001.344 1.969c.262.104.542.156.824.152h10.34c1.192 0 2.237-.93 2.237-2.12V44.78c0-1.187-1.045-2.185-2.237-2.185z" fill="#24679E"/><path d="M75.454.04L63.312 3.3a1.236 1.236 0 00-.875 1.518c.056.21.166.401.32.555l3.04 3.047-16.16 16.114-8.873-8.891L27.8 28.633l-7.604-7.62L0 41.25l2.977 2.984 17.222-17.262 7.604 7.62L40.768 21.6l8.866 8.883 19.135-19.081 2.867 2.873a1.237 1.237 0 002.071-.556L76.96 1.553a1.242 1.242 0 00-.87-1.51 1.234 1.234 0 00-.636-.004z" fill="url(#arrow)"/><defs><linearGradient id="arrow" x1="-.002" y1="22.116" x2="77.012" y2="22.116" gradientUnits="userSpaceOnUse"><stop stop-color="#3DC277"/><stop offset="1" stop-color="#1C7845"/></linearGradient></defs></svg>